<?xml version="1.0" standalone="no"?>
<!DOCTYPE svg PUBLIC "-//W3C//DTD SVG 20010904//EN"
 "http://www.w3.org/TR/2001/REC-SVG-20010904/DTD/svg10.dtd">
<svg version="1.0" xmlns="http://www.w3.org/2000/svg"
 width="256.000000pt" height="256.000000pt" viewBox="0 0 256.000000 256.000000"
 preserveAspectRatio="xMidYMid meet">

<g transform="translate(0.000000,256.000000) scale(0.100000,-0.100000)"
fill="#000000" stroke="none">
<path d="M724 1868 c-39 -18 -44 -49 -44 -269 l0 -211 30 -29 30 -30 220 3
c291 4 265 -23 265 274 l0 226 -28 24 c-28 24 -30 24 -240 23 -124 0 -221 -5
-233 -11z"/>
<path d="M1373 1856 l-28 -24 0 -226 c0 -298 -27 -271 271 -271 l226 0 24 28
c24 28 24 30 24 243 l0 216 -29 29 -29 29 -216 0 c-213 0 -215 0 -243 -24z"/>
<path d="M734 1210 c-50 -20 -54 -39 -54 -268 l0 -214 29 -29 29 -29 217 0
217 0 29 30 30 30 -3 220 c-4 289 20 264 -261 267 -116 1 -222 -2 -233 -7z"/>
<path d="M1374 1186 l-35 -35 3 -216 3 -217 28 -24 c28 -24 30 -24 243 -24
l216 0 29 29 29 29 0 216 c0 213 0 215 -24 243 l-24 28 -217 3 -216 3 -35 -35z"/>
</g>
</svg>
